<svg width="31" height="32" viewBox="0 0 31 32" fill="none" xmlns="http://www.w3.org/2000/svg">
<g id="Group 1">
<path id="Vector" d="M28.6738 1.00024L17.2979 10.3993L19.4106 4.85409L28.6738 1.00024Z" fill="#E2E2E2" stroke="#E2E2E2" stroke-width="0.1125" stroke-linecap="round" stroke-linejoin="round"/>
<path id="Vector_2" d="M2.43848 1.00024L13.711 10.4883L11.7017 4.85409L2.43848 1.00024Z" fill="#DEDEDE" stroke="#DEDEDE" stroke-width="0.1125" stroke-linecap="round" stroke-linejoin="round"/>
<path id="Vector_3" d="M24.5848 22.7891L21.5586 27.9534L28.0341 29.9367L29.8847 22.9031L24.5848 22.7891Z" fill="#DEDEDE" stroke="#DEDEDE" stroke-width="0.1125" stroke-linecap="round" stroke-linejoin="round"/>
<path id="Vector_4" d="M1.23926 22.9031L3.07863 29.9367L9.55412 27.9534L6.53913 22.7891L1.23926 22.9031Z" fill="#DEDEDE" stroke="#DEDEDE" stroke-width="0.1125" stroke-linecap="round" stroke-linejoin="round"/>
<path id="Vector_5" d="M9.20001 14.0628L7.39551 17.1035L13.8148 17.4218L13.5976 9.72534L9.20001 14.0628Z" fill="#DEDEDE" stroke="#DEDEDE" stroke-width="0.1125" stroke-linecap="round" stroke-linejoin="round"/>
<path id="Vector_6" d="M21.9126 14.0629L17.4464 9.63647L17.2979 17.4219L23.7171 17.1036L21.9126 14.0629Z" fill="#DEDEDE" stroke="#DEDEDE" stroke-width="0.1125" stroke-linecap="round" stroke-linejoin="round"/>
<path id="Vector_7" d="M9.55469 27.9533L13.4269 25.8535L10.0913 22.9543L9.55469 27.9533Z" fill="#DEDEDE" stroke="#DEDEDE" stroke-width="0.1125" stroke-linecap="round" stroke-linejoin="round"/>
<path id="Vector_8" d="M17.6865 25.8535L21.5588 27.9533L21.0221 22.9543L17.6865 25.8535Z" fill="#DEDEDE" stroke="#DEDEDE" stroke-width="0.1125" stroke-linecap="round" stroke-linejoin="round"/>
<path id="Vector_9" d="M21.5588 27.9538L17.6865 25.854L17.9948 28.6655L17.961 29.8482L21.5588 27.9538Z" fill="#DADADA" stroke="#DADADA" stroke-width="0.1125" stroke-linecap="round" stroke-linejoin="round"/>
<path id="Vector_10" d="M9.55469 27.9538L13.1524 29.8482L13.1299 28.6655L13.4269 25.854L9.55469 27.9538Z" fill="#DADADA" stroke="#DADADA" stroke-width="0.1125" stroke-linecap="round" stroke-linejoin="round"/>
<path id="Vector_11" d="M13.2209 21.0966L10 20.0417L12.2725 18.884L13.2209 21.0966Z" fill="#233447" stroke="#233447" stroke-width="0.1125" stroke-linecap="round" stroke-linejoin="round"/>
<path id="Vector_12" d="M17.8916 21.0966L18.84 18.884L21.1237 20.0417L17.8916 21.0966Z" fill="#233447" stroke="#233447" stroke-width="0.1125" stroke-linecap="round" stroke-linejoin="round"/>
<path id="Vector_13" d="M9.55406 27.9534L10.1132 22.7891L6.53906 22.9031L9.55406 27.9534Z" fill="#D1D1D1" stroke="#D1D1D1" stroke-width="0.1125" stroke-linecap="round" stroke-linejoin="round"/>
<path id="Vector_14" d="M20.999 22.7891L21.5581 27.9534L24.5844 22.9031L20.999 22.7891Z" fill="#D1D1D1" stroke="#D1D1D1" stroke-width="0.1125" stroke-linecap="round" stroke-linejoin="round"/>
<path id="Vector_15" d="M23.7171 17.1035L17.2979 17.4217L17.8919 21.0964L18.8402 18.8839L21.124 20.0415L23.7171 17.1035Z" fill="#D1D1D1" stroke="#D1D1D1" stroke-width="0.1125" stroke-linecap="round" stroke-linejoin="round"/>
<path id="Vector_16" d="M9.99988 20.0413L12.2724 18.8836L13.2208 21.0962L13.8148 17.4215L7.39551 17.1033L9.99988 20.0413Z" fill="#D1D1D1" stroke="#D1D1D1" stroke-width="0.1125" stroke-linecap="round" stroke-linejoin="round"/>
<path id="Vector_17" d="M7.39551 17.1033L10.091 22.9542L9.99988 20.0413L7.39551 17.1033Z" fill="#E1E1E1" stroke="#E1E1E1" stroke-width="0.1125" stroke-linecap="round" stroke-linejoin="round"/>
<path id="Vector_18" d="M21.1239 20.0415L21.0215 22.9544L23.717 17.1035L21.1239 20.0415Z" fill="#E1E1E1" stroke="#E1E1E1" stroke-width="0.1125" stroke-linecap="round" stroke-linejoin="round"/>
<path id="Vector_19" d="M13.8147 17.4219L13.2207 21.0966L13.9745 25.434L14.1342 19.7234L13.8147 17.4219Z" fill="#E1E1E1" stroke="#E1E1E1" stroke-width="0.1125" stroke-linecap="round" stroke-linejoin="round"/>
<path id="Vector_20" d="M17.2975 17.4219L16.9893 19.7109L17.1378 25.434L17.8915 21.0966L17.2975 17.4219Z" fill="#E1E1E1" stroke="#E1E1E1" stroke-width="0.1125" stroke-linecap="round" stroke-linejoin="round"/>
<path id="Vector_21" d="M17.8924 21.0964L17.1387 25.4339L17.6865 25.8536L21.0222 22.9544L21.1245 20.0415L17.8924 21.0964Z" fill="white" stroke="white" stroke-width="0.1125" stroke-linecap="round" stroke-linejoin="round"/>
<path id="Vector_22" d="M10 20.0415L10.0911 22.9544L13.4267 25.8536L13.9746 25.4339L13.2209 21.0964L10 20.0415Z" fill="white" stroke="white" stroke-width="0.1125" stroke-linecap="round" stroke-linejoin="round"/>
<path id="Vector_23" d="M17.9607 29.8477L17.9944 28.665L17.7098 28.3856H13.4033L13.1299 28.665L13.1524 29.8477L9.55469 27.9534L10.8113 29.0972L13.3696 31.0693H17.7436L20.3018 29.0972L21.5584 27.9534L17.9607 29.8477Z" fill="#C1C1C1" stroke="#C1C1C1" stroke-width="0.1125" stroke-linecap="round" stroke-linejoin="round"/>
<path id="Vector_24" d="M17.6861 25.8538L17.1383 25.4341H13.9748L13.4269 25.8538L13.1299 28.6652L13.4033 28.3859H17.7098L17.9944 28.6652L17.6861 25.8538Z" fill="#161616" stroke="#161616" stroke-width="0.1125" stroke-linecap="round" stroke-linejoin="round"/>
<path id="Vector_25" d="M29.1536 11.0107L30.1133 5.82131L28.6744 1.00024L17.6865 10.0823L21.9131 14.0627L27.8858 16.0097L29.1998 14.292L28.6283 13.8347L29.5418 12.9051L28.8454 12.2949L29.7589 11.5194L29.1536 11.0107Z" fill="#7A7A7A" stroke="#7A7A7A" stroke-width="0.1125" stroke-linecap="round" stroke-linejoin="round"/>
<path id="Vector_26" d="M1 5.82131L1.97087 11.0107L1.35438 11.5194L2.26787 12.2949L1.5715 12.9051L2.485 13.8347L1.9135 14.292L3.2275 16.0097L9.20011 14.0627L13.4267 10.0823L2.43887 1.00024L1 5.82131Z" fill="#7A7A7A" stroke="#7A7A7A" stroke-width="0.1125" stroke-linecap="round" stroke-linejoin="round"/>
<path id="Vector_27" d="M27.8851 16.0095L21.9125 14.0625L23.717 17.1032L21.0215 22.9542L24.5844 22.9028H29.8842L27.8851 16.0095Z" fill="white" stroke="white" stroke-width="0.1125" stroke-linecap="round" stroke-linejoin="round"/>
<path id="Vector_28" d="M9.19975 14.0625L3.22713 16.0095L1.23926 22.9028H6.53913L10.0907 22.9542L7.39525 17.1032L9.19975 14.0625Z" fill="white" stroke="white" stroke-width="0.1125" stroke-linecap="round" stroke-linejoin="round"/>
<path id="Vector_29" d="M17.2979 17.4216L17.686 10.0823L19.4106 4.854H11.7021L13.4268 10.0823L13.8149 17.4216L13.9634 19.7357L13.9746 25.4338H17.1381L17.1494 19.7357L17.2979 17.4216Z" fill="white" stroke="white" stroke-width="0.1125" stroke-linecap="round" stroke-linejoin="round"/>
</g>
</svg>
