<svg width="30" height="36" viewBox="0 0 30 36" fill="none" xmlns="http://www.w3.org/2000/svg">
<g id="tron">
<path id="Vector" d="M29.592 10.5902C28.1124 9.06877 26.0656 6.74539 24.3986 5.09761L24.2999 5.02071C24.1358 4.87394 23.9508 4.75883 23.7525 4.68017C19.7329 3.84529 1.02585 -0.048967 0.660887 0.000466469C0.558621 0.016417 0.46087 0.0577097 0.374832 0.121304L0.281124 0.203693C0.165737 0.334198 0.0780986 0.49186 0.02466 0.665072L0 0.736476V1.12645V1.18687C2.10596 7.71759 10.4213 29.1113 12.0587 34.1316C12.1574 34.4721 12.3448 35.1202 12.695 35.1532H12.7739C12.9613 35.1532 13.7603 33.9778 13.7603 33.9778C13.7603 33.9778 28.0433 14.6877 29.4884 12.6335C29.6754 12.3804 29.8406 12.1083 29.9816 11.8206C30.0176 11.5955 30.0006 11.3638 29.9323 11.1482C29.864 10.9326 29.7468 10.7404 29.592 10.5902ZM17.4247 12.8367L23.5207 7.20677L27.0964 10.8758L17.4247 12.8367ZM15.0574 12.4687L4.56209 2.88958L21.5429 6.37739L15.0574 12.4687ZM16.0043 14.9788L26.7462 13.0509L14.4655 29.5287L16.0043 14.9788ZM3.13675 3.84529L14.1795 14.2813L12.5815 29.5397L3.13675 3.84529Z" fill="white"/>
</g>
</svg>
