<svg width="18" height="18" viewBox="0 0 18 18" fill="none" xmlns="http://www.w3.org/2000/svg">
<g id="SVG">
<g id="Clip path group">
<mask id="mask0_230_5255" style="mask-type:luminance" maskUnits="userSpaceOnUse" x="0" y="0" width="18" height="18">
<g id="clip0_923_20646">
<path id="Vector" d="M18 0H0V18H18V0Z" fill="white"/>
</g>
</mask>
<g mask="url(#mask0_230_5255)">
<g id="Group">
<path id="Vector_2" opacity="0.2" d="M3.69824 11.1969C3.5857 10.9261 3.4069 10.6869 3.22984 10.4816C3.10861 10.341 2.97013 10.1965 2.84203 10.0628C2.7871 10.0054 2.73409 9.95008 2.68515 9.89788C2.51048 9.71167 2.36952 9.54742 2.2718 9.38902C2.17588 9.23359 2.1377 9.10903 2.1377 8.99995C2.1377 8.8909 2.17588 8.76636 2.2718 8.61089C2.36952 8.45248 2.51048 8.28826 2.68515 8.10199C2.73408 8.0498 2.7871 7.99447 2.84203 7.93714C2.97013 7.80342 3.10861 7.65888 3.22984 7.51829C3.4069 7.31297 3.58536 7.07456 3.69791 6.80387C3.80837 6.53691 3.84752 6.24391 3.86477 5.97791C3.87603 5.80422 3.87898 5.61288 3.88172 5.43485C3.88307 5.34796 3.88435 5.26423 3.88654 5.18728C3.90179 4.64994 3.96597 4.32901 4.14761 4.14737C4.32926 3.96573 4.65018 3.90154 5.18753 3.8863C5.26448 3.88411 5.3482 3.88282 5.4351 3.88148C5.61313 3.87874 5.80447 3.87578 5.97816 3.86452C6.24415 3.84728 6.53646 3.80841 6.80342 3.69794C7.07513 3.58547 7.31415 3.40696 7.51988 3.22972C7.66154 3.10766 7.80684 2.96835 7.9411 2.83963C7.99764 2.78542 8.05222 2.7331 8.10374 2.68473C8.28988 2.50998 8.45375 2.36908 8.61186 2.27141C8.76696 2.17559 8.89121 2.13745 9.0002 2.13745C9.10928 2.13745 9.23383 2.17564 9.38926 2.27155C9.54766 2.36927 9.71192 2.51024 9.89812 2.6849C9.95033 2.73385 10.0057 2.78686 10.063 2.84178C10.1967 2.96989 10.3413 3.10836 10.4819 3.22959C10.6872 3.40666 10.9256 3.58512 11.1963 3.69766C11.4633 3.80808 11.7564 3.84728 12.0226 3.86452C12.1963 3.87578 12.3875 3.87874 12.5655 3.88148C12.6525 3.88282 12.7362 3.88411 12.8131 3.8863C13.3503 3.90154 13.6711 3.96571 13.8528 4.14737C14.0344 4.32902 14.0986 4.64981 14.1138 5.18702C14.1161 5.26396 14.1173 5.34767 14.1187 5.43456C14.1214 5.61258 14.1243 5.80391 14.1356 5.97761C14.1529 6.24367 14.1918 6.53598 14.3022 6.80305C14.4147 7.07476 14.5932 7.31391 14.7705 7.51963C14.8925 7.66129 15.0318 7.80659 15.1605 7.94085C15.2147 7.99739 15.2671 8.05197 15.3154 8.1035C15.4902 8.28963 15.631 8.45351 15.7288 8.61162C15.8245 8.76672 15.8627 8.89097 15.8627 8.99995C15.8627 9.10903 15.8245 9.23359 15.7286 9.38902C15.6309 9.54742 15.4899 9.71167 15.3152 9.89788C15.2663 9.95008 15.2133 10.0054 15.1584 10.0628C15.0303 10.1965 14.8918 10.341 14.7705 10.4816C14.5935 10.6869 14.415 10.9253 14.3025 11.196C14.192 11.4631 14.1529 11.7562 14.1356 12.0223C14.1243 12.196 14.1214 12.3874 14.1187 12.5653C14.1173 12.6522 14.1161 12.7359 14.1138 12.8129C14.0986 13.3501 14.0344 13.6709 13.8528 13.8526C13.6711 14.0342 13.3503 14.0984 12.8131 14.1136C12.7362 14.1158 12.6525 14.1171 12.5655 14.1184C12.3876 14.1211 12.1963 14.1241 12.0226 14.1354C11.7564 14.1526 11.4641 14.1915 11.1971 14.3019C10.9264 14.4145 10.6872 14.5933 10.4819 14.7703C10.3413 14.8915 10.1967 15.03 10.063 15.1581C10.0057 15.213 9.95033 15.266 9.89812 15.315C9.71192 15.4897 9.54766 15.6306 9.38926 15.7284C9.23383 15.8243 9.10928 15.8625 9.0002 15.8625C8.89114 15.8625 8.7666 15.8243 8.61113 15.7284C8.45272 15.6306 8.2885 15.4897 8.10224 15.315C8.05005 15.266 7.99471 15.213 7.93738 15.1581C7.80365 15.03 7.65911 14.8915 7.51853 14.7703C7.31322 14.5933 7.07481 14.4148 6.80411 14.3022C6.53716 14.1918 6.24415 14.1526 5.97816 14.1354C5.80447 14.1241 5.61313 14.1211 5.43509 14.1184C5.34819 14.1171 5.26448 14.1158 5.18753 14.1136C4.65018 14.0984 4.32926 14.0342 4.14761 13.8526C3.96596 13.6709 3.90179 13.3501 3.88654 12.8129C3.88435 12.7359 3.88307 12.6522 3.88172 12.5653C3.87898 12.3873 3.87603 12.196 3.86477 12.0223C3.84752 11.7562 3.80865 11.4639 3.69824 11.1969Z" fill="#9B96B0" stroke="#676182" stroke-width="0.9"/>
<path id="Vector_3" d="M3.82922 14.1708C3.18235 13.5239 3.61125 12.1648 3.28219 11.3688C2.94047 10.5469 1.6875 9.87894 1.6875 9C1.6875 8.1211 2.94047 7.45312 3.28219 6.63117C3.61125 5.83593 3.18235 4.4761 3.82922 3.82922C4.4761 3.18235 5.83593 3.61125 6.63117 3.28219C7.45664 2.94047 8.1211 1.6875 9 1.6875C9.87894 1.6875 10.5469 2.94047 11.3688 3.28219C12.1648 3.61125 13.5239 3.18235 14.1708 3.82922C14.8177 4.4761 14.3887 5.83523 14.7178 6.63117C15.0595 7.45664 16.3125 8.1211 16.3125 9C16.3125 9.87894 15.0595 10.5469 14.7178 11.3688C14.3887 12.1648 14.8177 13.5239 14.1708 14.1708C13.5239 14.8177 12.1648 14.3887 11.3688 14.7178C10.5469 15.0595 9.87894 16.3125 9 16.3125C8.1211 16.3125 7.45312 15.0595 6.63117 14.7178C5.83593 14.3887 4.4761 14.8177 3.82922 14.1708Z" stroke="#676182" stroke-width="0.9" stroke-linecap="round" stroke-linejoin="round"/>
<path id="Vector_4" d="M6.1875 9.5625L7.875 11.25L11.8125 7.3125" stroke="#9B96B0" stroke-width="0.9" stroke-linecap="round" stroke-linejoin="round"/>
</g>
</g>
</g>
</g>
</svg>
